<?xml version="1.0" standalone="no"?>
<!DOCTYPE svg PUBLIC "-//W3C//DTD SVG 20010904//EN"
 "http://www.w3.org/TR/2001/REC-SVG-20010904/DTD/svg10.dtd">
<svg version="1.0" xmlns="http://www.w3.org/2000/svg"
 width="640.000000pt" height="640.000000pt" viewBox="0 0 640.000000 640.000000"
 preserveAspectRatio="xMidYMid meet">

<g transform="translate(0.000000,640.000000) scale(0.100000,-0.100000)"
fill="#000000" stroke="none">
<path d="M1390 3555 l0 -205 45 0 45 0 0 160 0 160 296 0 c336 0 340 -1 394
-76 57 -80 73 -185 44 -285 -21 -72 -48 -114 -92 -144 -32 -22 -48 -25 -119
-25 l-83 0 0 225 c0 216 -1 225 -19 225 -26 0 -31 -6 -237 -327 l-179 -278 -5
140 -5 140 -223 3 c-277 3 -298 -4 -228 -81 l34 -37 166 0 166 0 0 -252 0
-251 25 23 c14 13 25 27 25 32 0 4 82 139 183 300 l182 292 3 -127 3 -127 142
0 c162 0 178 5 256 88 166 178 128 507 -72 607 l-51 25 -348 0 -348 0 0 -205z"/>
<path d="M2474 3465 c-3 -8 -4 -101 -2 -207 4 -214 9 -236 72 -306 20 -22 59
-49 87 -61 47 -21 64 -22 218 -19 167 3 168 3 217 33 53 33 98 90 114 145 5
19 10 123 10 231 l0 196 -45 1 -45 2 0 -201 c0 -188 -1 -204 -22 -240 -14 -25
-37 -46 -64 -60 -39 -18 -58 -20 -198 -17 -172 3 -190 10 -231 79 -18 30 -20
56 -23 237 l-4 202 -39 0 c-26 0 -42 -5 -45 -15z"/>
<path d="M3393 3474 c-16 -7 -18 -380 -3 -435 14 -51 76 -118 134 -145 l51
-24 425 0 c421 0 425 1 464 23 54 30 78 67 84 126 6 64 -2 92 -34 131 -51 60
-67 63 -310 64 -193 1 -224 4 -248 19 -52 35 -56 100 -9 137 24 19 42 20 299
20 l274 0 0 45 0 45 -266 0 c-179 0 -280 -4 -307 -12 -80 -24 -133 -111 -118
-195 10 -53 25 -78 68 -110 l36 -28 243 -5 c231 -5 245 -6 265 -26 30 -30 30
-86 -1 -119 l-23 -25 -413 0 c-448 0 -460 1 -503 56 -31 39 -32 49 -34 264
l-2 195 -30 2 c-16 1 -36 0 -42 -3z"/>
<path d="M4865 3462 c-70 -24 -110 -55 -142 -110 -25 -43 -28 -58 -32 -163 -2
-99 0 -123 16 -160 29 -65 71 -109 128 -135 48 -23 58 -24 308 -24 l257 0 0
45 0 45 -253 0 -253 0 -41 26 c-48 32 -73 70 -73 113 l0 31 311 0 310 0 -3 43
-3 42 -295 1 c-162 1 -301 2 -307 3 -21 2 -15 55 10 91 50 75 49 75 338 78
l259 3 0 45 0 44 -242 0 c-204 -1 -251 -3 -293 -18z"/>
<path d="M1491 2256 c-1 -174 5 -183 101 -178 40 3 62 50 55 121 -6 64 -24
111 -43 111 -16 0 -57 -53 -79 -100 -16 -35 -16 -35 -11 40 3 42 3 93 -1 113
-12 76 -21 32 -22 -107z m128 3 c23 -67 7 -152 -31 -165 -10 -3 -31 0 -47 7
l-28 13 23 63 c22 60 52 112 66 113 3 0 11 -14 17 -31z"/>
<path d="M2020 2365 c-13 -14 -21 -27 -19 -30 6 -5 59 39 59 49 0 13 -17 5
-40 -19z"/>
<path d="M2478 2368 c-3 -12 -6 -41 -7 -63 -1 -21 -4 -41 -6 -43 -2 -2 -14 4
-28 13 -19 12 -33 14 -58 7 -28 -7 -37 -16 -51 -53 -18 -48 -24 -144 -8 -154
22 -14 62 10 102 63 l43 55 5 -46 c6 -46 23 -77 36 -64 4 4 1 13 -6 22 -10 12
-11 45 -7 138 4 67 3 128 -2 135 -6 10 -10 8 -13 -10z m-34 -117 c17 -18 16
-22 -19 -75 -44 -65 -83 -96 -96 -75 -5 8 -7 21 -5 29 3 8 8 31 11 50 13 62
32 90 64 90 15 0 36 -9 45 -19z"/>
<path d="M3988 2368 c-3 -12 -6 -41 -7 -63 -1 -21 -3 -41 -5 -42 -1 -2 -17 4
-34 13 -48 24 -83 8 -104 -47 -19 -49 -24 -144 -7 -154 20 -13 66 17 105 68
l39 51 3 -46 c2 -26 10 -52 18 -59 19 -15 31 -4 15 15 -14 17 -16 55 -7 171 4
50 3 96 -2 103 -7 11 -11 8 -14 -10z m-34 -117 c17 -19 17 -22 -15 -68 -31
-46 -77 -93 -90 -93 -22 0 -9 105 20 158 15 28 61 30 85 3z"/>
<path d="M2166 2371 c-11 -18 -8 -273 4 -285 12 -12 81 20 88 42 2 7 -11 4
-33 -9 -20 -12 -39 -19 -42 -15 -7 6 -5 171 2 228 4 35 -7 59 -19 39z"/>
<path d="M4328 2277 c-42 -45 -45 -53 -52 -111 -6 -45 -4 -62 9 -83 15 -22 22
-24 52 -20 34 6 73 31 73 48 0 5 -16 -1 -35 -12 -44 -26 -79 -22 -83 10 -7 43
6 66 48 83 45 19 70 59 53 86 -16 26 -40 26 -65 -1z m52 -6 c0 -23 -15 -43
-41 -57 -34 -17 -36 -10 -9 34 18 29 50 44 50 23z"/>
<path d="M4502 2288 c-16 -20 -42 -118 -42 -159 0 -20 7 -42 15 -49 12 -10 21
-6 48 21 18 19 42 47 53 63 l20 28 -2 -43 c-2 -52 3 -69 22 -69 17 0 19 16 3
26 -10 6 -7 73 7 144 4 22 0 28 -29 38 -43 15 -82 15 -95 0z m73 -10 c14 -6
25 -19 25 -28 0 -29 -90 -150 -112 -150 -20 0 7 145 32 176 15 17 22 17 55 2z"/>
<path d="M2729 2288 c-6 -39 -7 -197 0 -207 15 -23 56 -5 121 55 l60 56 0
-110 c0 -103 -2 -112 -25 -140 -33 -39 -67 -47 -111 -26 -55 26 -66 69 -25
101 11 8 12 12 4 13 -25 0 -54 -40 -47 -63 24 -81 146 -102 198 -34 22 29 25
43 26 137 3 184 1 210 -14 210 -10 0 -14 -10 -14 -29 1 -37 -41 -92 -101 -130
-26 -17 -51 -31 -55 -31 -5 0 -5 42 -1 94 4 63 3 96 -4 101 -6 3 -11 5 -12 3z"/>
<path d="M5185 2276 c-45 -20 -59 -40 -48 -72 7 -21 22 -32 68 -49 67 -26 78
-40 40 -55 -36 -14 -102 -13 -107 2 -2 6 -10 8 -16 4 -25 -15 2 -26 67 -26
121 0 136 47 28 85 -70 24 -82 48 -42 83 20 17 37 23 57 20 18 -3 27 0 25 6
-5 16 -38 17 -72 2z"/>
<path d="M2013 2264 c-3 -9 -6 -53 -7 -98 -1 -74 1 -81 19 -84 11 -1 36 11 55
27 26 22 30 30 18 31 -10 0 -18 -4 -18 -8 0 -8 -43 -32 -57 -32 -3 0 -2 41 2
90 7 84 2 111 -12 74z"/>
<path d="M3051 2249 c-12 -19 -21 -42 -21 -52 0 -10 -5 -27 -11 -39 -16 -30
-3 -85 23 -91 41 -11 110 45 124 100 13 50 -17 100 -64 109 -27 6 -33 2 -51
-27z m83 -14 c27 -41 20 -83 -19 -122 -40 -40 -78 -43 -83 -5 -5 30 23 110 45
133 25 25 38 23 57 -6z"/>
<path d="M4718 2218 c0 -35 -2 -75 -3 -90 -2 -30 10 -56 21 -45 4 3 28 41 53
83 25 43 51 79 58 81 7 3 12 -22 14 -76 2 -44 7 -83 11 -87 11 -11 44 22 75
75 l27 46 8 -38 c11 -54 26 -77 49 -77 25 0 59 17 59 31 0 5 -12 2 -26 -7 -24
-16 -26 -16 -42 0 -12 12 -17 34 -17 81 0 37 -4 65 -10 65 -10 -1 -54 -66 -83
-122 -23 -44 -32 -33 -32 40 0 45 -5 75 -15 88 -15 18 -16 18 -50 -21 -19 -22
-35 -44 -35 -48 0 -5 -9 -20 -20 -34 l-20 -26 0 72 c0 88 -19 96 -22 9z"/>
<path d="M1721 2187 c-2 -121 24 -136 97 -52 37 41 42 43 42 12 0 -50 44 -81
80 -56 12 9 11 10 -8 6 -48 -11 -67 54 -37 126 18 43 18 47 5 47 -5 0 -16 -15
-24 -32 -18 -43 -117 -141 -129 -129 -5 5 -8 43 -5 85 2 53 0 76 -8 76 -8 0
-12 -29 -13 -83z"/>
<path d="M3231 2187 c-3 -121 24 -136 97 -52 37 41 42 43 42 12 0 -50 44 -81
80 -56 12 8 9 9 -12 5 -21 -5 -30 -1 -38 13 -14 27 -12 81 5 111 17 29 19 50
5 50 -5 0 -16 -15 -24 -32 -18 -43 -117 -141 -129 -129 -5 5 -8 43 -5 85 2 50
0 76 -7 76 -7 0 -12 -32 -14 -83z"/>
<path d="M3514 2239 c3 -17 6 -62 6 -100 0 -52 3 -69 14 -69 8 0 12 8 9 23 -7
38 47 129 92 154 22 13 34 23 27 23 -24 0 -70 -30 -96 -62 -25 -33 -26 -33
-26 -8 0 37 -11 70 -22 70 -6 0 -8 -13 -4 -31z"/>
<path d="M4094 2254 c3 -9 6 -54 6 -100 0 -68 3 -84 15 -84 10 0 15 10 15 29
0 60 34 114 95 152 18 12 24 19 14 19 -18 0 -63 -32 -96 -70 l-22 -25 -1 48
c0 36 -4 47 -16 47 -11 0 -14 -5 -10 -16z"/>
</g>
</svg>
